<svg xmlns="http://www.w3.org/2000/svg" viewBox="0 0 1200 800">
  <rect width="1200" height="800" fill="#10b981"/>
  <g fill="none" stroke="#065f46" stroke-width="6" opacity="0.5">
    <path d="M40 80c80 40 140 40 200 0 60-40 120-40 200 10 120 70 200 50 280-10 80-60 160-70 240-30 80 40 160 40 240 10"/>
    <path d="M20 240c100 20 160-10 220-60 60-50 120-40 200 10 120 80 220 80 300 10 80-70 160-80 240-40 80 40 160 50 220 40"/>
    <path d="M0 420c140 40 200 10 260-40 60-50 120-70 200-30 140 70 240 120 360 30 100-80 180-90 260-50 80 40 140 70 220 60"/>
  </g>
</svg>

